PathFileType	3	(X/Y/Z)	C:\Users\koon_\Desktop\
DataRate	CameraRate	NumFrames	NumMarkers	Units	OrigDataRate	OrigDataStartFrame	OrigNumFrames
100.0	100.0	10	27	mm	100.0	1984	3966	
Frame#	Time	GM:LFHD			GM:RFHD			GM:LBHD			GM:RBHD			GM:C7			GM:T10			GM:CLAV			GM:STRN			GM:RBAK			GM:LSHO			GM:LUPA			GM:LELB			GM:LFRA			GM:LWRA			GM:LWRB			GM:LFIN			GM:RSHO			GM:RUPA			GM:RELB			GM:RFRA			GM:RWRA			GM:RWRB			GM:RFIN			GM:LASI			GM:RASI			GM:LPSI			GM:RPSI			
		X1	Y1	Z1	X2	Y2	Z2	X3	Y3	Z3	X4	Y4	Z4	X5	Y5	Z5	X6	Y6	Z6	X7	Y7	Z7	X8	Y8	Z8	X9	Y9	Z9	X10	Y10	Z10	X11	Y11	Z11	X12	Y12	Z12	X13	Y13	Z13	X14	Y14	Z14	X15	Y15	Z15	X16	Y16	Z16	X17	Y17	Z17	X18	Y18	Z18	X19	Y19	Z19	X20	Y20	Z20	X21	Y21	Z21	X22	Y22	Z22	X23	Y23	Z23	X24	Y24	Z24	X25	Y25	Z25	X26	Y26	Z26	X27	Y27	Z27	
1984	19.83	68.279663	1608.2825	-93.155235	-85.776367	1603.7782	-90.954361	67.21608	1581.8585	-223.70128	-95.824348	1581.444	-204.96901	-8.5084248	1417.1917	-252.48956	-4.0930033	1224.2344	-296.05484	0.70468765	1358.0605	-93.70594	2.2632902	1211.9622	-45.636257	-102.45097	1307.3313	-296.91907	169.53081	1392.7565	-169.97076	242.29579	1299.2261	-137.81238	294.46786	1102.134	-87.805	216.78499	1194.8491	-0.24781443	187.41139	1224.7167	55.564457	191.41243	1169.9768	94.724289	157.15523	1259.9004	133.66393	-187.38419	1386.6528	-149.21915	-270.82596	1188.9216	-79.882805	-304.10071	1094.6563	-63.199482	-255.67236	1168.0085	-16.428951	-183.2825	1202.0203	75.507896	-174.49919	1145.7316	101.40572	-141.45294	1226.2311	154.29781	135.29587	903.32629	-80.851563	-156.61163	908.36841	-75.505074	55.172916	952.87201	-289.44717	-82.504333	944.53387	-288.36377
1985	19.84	68.199318	1608.3093	-92.040916	-85.777184	1603.7999	-89.800339	67.20459	1581.9147	-222.62654	-96.212105	1581.4036	-203.84058	-8.3082571	1417.5621	-251.61765	-4.02109	1224.5591	-295.7338	0.78156179	1357.859	-93.097755	2.1738522	1211.7588	-45.339172	-102.3182	1307.8293	-296.74426	169.91479	1392.6533	-169.03609	242.26569	1297.6191	-139.36845	293.34286	1098.3953	-95.735512	217.74318	1188.6603	-4.2580438	188.93553	1216.9279	52.806831	192.89099	1160.9359	90.121796	159.59889	1249.9541	132.21858	-187.59154	1386.8005	-148.81102	-270.53162	1186.7822	-83.495789	-302.51471	1091.7954	-69.020699	-254.88063	1164.0787	-20.088102	-183.42555	1196.1294	73.326561	-174.7618	1139.2247	97.921249	-142.23338	1218.5073	152.96504	135.19249	903.52332	-80.871918	-156.61676	908.51782	-75.943253	55.416954	952.90924	-289.44476	-82.291145	944.68195	-288.57074
1986	19.85	68.233856	1608.3245	-90.915161	-85.72435	1603.6873	-88.820496	67.313133	1582.0006	-221.49323	-96.100502	1581.3772	-202.64508	-7.9883447	1417.8602	-250.86125	-3.9286647	1224.9384	-295.48828	0.92015672	1357.5857	-92.557335	2.1547441	1211.5161	-45.083561	-101.98933	1308.1792	-296.67865	170.05673	1392.3397	-167.78896	242.20943	1295.8444	-140.68048	292.16013	1095.089	-103.39567	218.32303	1182.9473	-8.401351	190.00723	1209.5922	49.870216	194.20619	1152.4711	85.405823	161.72687	1240.4249	130.71123	-187.55005	1386.887	-148.40854	-269.72821	1185.0654	-86.980347	-301.03098	1089.2793	-74.386795	-254.00287	1160.5106	-23.359669	-183.20221	1190.571	71.069908	-174.55086	1133.0298	94.452301	-143.121	1211.2856	150.85768	135.22226	903.74237	-80.951958	-156.59669	908.51788	-76.412903	55.657238	952.92767	-289.48615	-81.983818	944.73468	-288.82474
1987	19.86	68.332565	1608.2838	-89.748718	-85.632683	1603.4785	-87.662132	67.484543	1582.0839	-220.29736	-95.955521	1581.3706	-201.61575	-7.6273894	1418.1777	-250.16701	-3.8750055	1225.3391	-295.34799	1.0308745	1357.3333	-92.015907	2.6816547	1211.6635	-44.983109	-101.57609	1308.5183	-296.82086	170.44131	1392.2579	-166.61525	242.17833	1294.317	-141.71512	290.84711	1092.1304	-110.55097	218.46292	1177.6094	-12.477612	190.73193	1202.714	46.833244	195.38286	1144.702	80.756882	163.48454	1231.4083	128.91188	-187.32556	1386.8527	-148.01633	-268.68826	1183.5762	-89.883102	-299.55368	1086.938	-79.453598	-252.97762	1157.2946	-26.38529	-182.73108	1185.6456	68.719444	-174.05341	1127.4037	91.10215	-143.71121	1204.9823	149.11403	135.28508	903.98773	-81.095169	-156.59595	908.46417	-76.946335	56.098049	952.91632	-289.40762	-81.660637	944.76605	-289.15887
1988	19.87	68.463867	1608.2053	-88.489243	-85.478271	1603.3129	-86.446899	67.620308	1582.196	-219.1732	-95.683525	1581.2886	-200.46759	-7.3885593	1418.4515	-249.52966	-3.754319	1225.7435	-295.26926	1.2809747	1357.0265	-91.45681	2.7251391	1211.0079	-45.036575	-101.24991	1309.1208	-296.90729	170.99304	1392.4144	-165.84859	242.31148	1293.1425	-142.64825	289.46469	1089.5945	-117.42837	218.32478	1172.7808	-16.323303	191.26936	1196.4576	43.823288	196.40567	1137.6157	76.248779	165.00868	1223.0793	127.03961	-187.16841	1386.7689	-147.53905	-267.43527	1182.1436	-92.198189	-297.98822	1084.7791	-83.992752	-251.94621	1154.474	-29.288136	-182.03371	1181.4331	66.30043	-173.25806	1122.5699	87.710487	-144.06331	1199.6814	147.02637	135.39325	904.2373	-81.300667	-156.48126	908.44855	-77.669853	56.570194	952.86908	-289.71356	-81.137024	944.70587	-289.58557
1989	19.88	68.713966	1608.0297	-87.273956	-85.270714	1603.1127	-85.285019	67.905434	1582.2643	-217.88033	-95.456512	1581.3011	-199.18077	-7.2437472	1418.7341	-248.93793	-3.6140051	1226.1525	-295.18127	1.5155455	1356.6958	-91.087784	2.9043329	1210.6689	-44.955627	-101.10871	1309.9264	-296.88202	171.14304	1392.3148	-164.98776	242.45732	1292.3469	-143.79964	288.04852	1087.4598	-123.71872	218.16194	1168.5337	-20.069693	191.67838	1190.9034	40.914177	197.21585	1131.3125	71.928787	166.43291	1215.517	125.27448	-187.04811	1386.6243	-146.93851	-266.17221	1180.7129	-94.000061	-296.46915	1082.9191	-87.821053	-250.94145	1151.9089	-31.991892	-181.30472	1177.8182	64.1269	-172.40289	1118.6112	84.533646	-143.82321	1195.4122	145.09052	135.50311	904.49738	-81.578819	-156.37823	908.45471	-78.484261	57.012856	952.77441	-290.06479	-80.591431	944.67755	-290.11255
1990	19.89	68.991638	1607.8236	-85.922371	-84.989983	1602.8937	-83.933594	68.224396	1582.4065	-216.64828	-95.177841	1581.387	-198.01375	-7.1499071	1419.0305	-248.31114	-3.3914258	1226.5107	-295.2673	1.8458203	1356.4384	-90.692406	3.1287944	1210.5178	-45.02317	-101.08056	1310.9154	-296.7901	171.67168	1392.5833	-164.64206	242.7088	1291.6864	-144.99126	286.72827	1085.5366	-129.44777	217.86034	1164.8434	-23.4729	192.18936	1186.0107	38.165245	197.80292	1125.818	67.76535	167.74266	1208.8326	123.35316	-186.86461	1386.3622	-146.16014	-264.97485	1179.0752	-95.433159	-294.92001	1081.2677	-91.194862	-249.82753	1149.778	-33.981647	-180.508	1174.9395	61.936642	-171.51524	1115.5471	81.650566	-143.33708	1192.0723	143.07643	135.72658	904.771	-81.871155	-156.09186	908.46228	-79.291397	57.564644	952.57996	-290.37009	-79.965919	944.66791	-290.74734
1991	19.9	69.303467	1607.5391	-84.521301	-84.690323	1602.5428	-82.718933	68.608765	1582.5354	-215.42926	-94.807053	1581.4065	-196.77232	-6.9072742	1419.4095	-247.66272	-3.0836539	1226.8585	-295.41254	2.2743652	1356.1343	-90.451836	3.323719	1210.0977	-45.35754	-101.15966	1311.9896	-296.61719	172.1248	1392.6674	-164.29362	243.02606	1291.156	-146.16992	285.48801	1083.9703	-134.4716	217.66383	1161.5651	-26.621849	192.66322	1181.7877	35.636375	198.0079	1121.0192	63.994579	168.99374	1203.1338	121.47823	-186.61443	1386.1069	-145.30769	-263.918	1177.5139	-96.58979	-293.401	1079.9387	-93.855186	-248.79889	1148.0858	-36.076035	-179.48895	1172.6743	60.038555	-170.62169	1113.3112	79.186668	-142.39064	1189.532	141.20744	135.92053	904.98016	-82.266342	-155.70663	908.57526	-80.213707	58.292393	952.43024	-291.05679	-79.085579	944.6499	-291.59058
1992	19.91	69.688156	1607.2056	-83.079781	-84.212852	1602.1683	-81.310745	69.05545	1582.7261	-214.03011	-93.889748	1581.5148	-195.52185	-6.5551324	1419.8796	-247.0648	-2.6674769	1227.3101	-295.63083	2.8797123	1355.8059	-90.199806	3.7747765	1209.5714	-45.912064	-101.06561	1312.9601	-296.45425	172.67758	1392.6798	-163.96158	243.42291	1290.6022	-147.23438	284.54541	1082.7363	-138.90613	217.58348	1158.9314	-29.428585	193.20537	1178.3219	33.346504	198.00049	1117.0161	60.548058	170.12419	1198.3708	119.7654	-186.2222	1385.895	-144.58762	-262.86981	1176.1774	-97.6455	-291.86789	1078.8026	-96.082092	-247.78876	1147.1841	-37.490925	-178.36191	1171.0393	58.235329	-169.69705	1111.7957	77.208351	-141.05344	1187.8018	139.53186	136.21817	905.21741	-82.677696	-155.4931	908.59436	-81.369804	59.119831	952.15387	-291.3681	-78.182014	944.59601	-292.54196
1993	19.92	70.223984	1606.8368	-81.625877	-83.749908	1601.6824	-79.884476	69.599289	1583.0059	-212.77744	-93.387733	1581.5907	-194.30032	-5.9751382	1420.2906	-246.52647	-2.1351666	1227.7184	-295.89612	3.4669571	1355.4413	-90.079277	4.5241528	1208.9869	-46.150627	-100.81975	1313.7844	-296.3403	173.37093	1392.6793	-163.71718	243.87447	1290.0878	-147.92432	283.81955	1081.7211	-142.44688	217.91144	1156.7819	-31.620745	193.68619	1175.5602	31.35965	197.60538	1113.858	57.654648	171.03674	1194.5258	118.12833	-185.61832	1385.7209	-143.91093	-261.90143	1175.2729	-98.581299	-290.3804	1077.964	-97.843246	-246.38057	1146.1329	-39.109669	-176.9081	1170.1218	56.677948	-168.72253	1110.8915	75.71566	-139.53566	1186.663	138.04271	136.47223	905.31311	-83.218674	-155.07475	908.76245	-82.683693	59.995705	951.90167	-291.90738	-77.084923	944.461	-293.60901
